HIERARCHY
ROOT pelvis
{
  OFFSET 0 100 0
  CHANNELS 6 Xposition Yposition Zposition Zrotation Xrotation Yrotation
  JOINT pelvis_right_femur
  {
    OFFSET -10.78128 -3.44521 -0.5502486
    CHANNELS 3 Zrotation Xrotation Yrotation
    JOINT right_femur_tibia
    {
      OFFSET -0.8047443 -44.0398 -0.1307829
      CHANNELS 3 Zrotation Xrotation Yrotation
      JOINT right_tibia_foot
      {
        OFFSET 3.006224 -47.83518 -5
        CHANNELS 3 Zrotation Xrotation Yrotation
        End Site
        {
          OFFSET 0 -5 15
        }
      }
    }
  }
  JOINT pelvis_left_femur
  {
    OFFSET 10.78128 -3.44521 -0.5502486
    CHANNELS 3 Zrotation Xrotation Yrotation
    JOINT left_femur_tibia
    {
      OFFSET 0.8047443 -44.0398 -0.1307829
      CHANNELS 3 Zrotation Xrotation Yrotation
      JOINT left_tibia_foot
      {
        OFFSET -4.370144 -48.10324 -4.275266
        CHANNELS 3 Zrotation Xrotation Yrotation
        End Site
        {
          OFFSET 0 -5 15
        }
      }
    }
  }
  JOINT pelvis_spine1
  {
    OFFSET 0 6.468898 -3.129235
    CHANNELS 3 Zrotation Xrotation Yrotation
    JOINT spine1
    {
      OFFSET 0 23.15396 4.99043
      CHANNELS 3 Zrotation Xrotation Yrotation
      JOINT spine2
      {
        OFFSET 0 20.79997 -5.064912
        CHANNELS 3 Zrotation Xrotation Yrotation
        JOINT neck
        {
          OFFSET 0 14.38658 9.616178
          CHANNELS 3 Zrotation Xrotation Yrotation
          End Site
          {
            OFFSET 0 20 0
          }
        }
      }
      JOINT right_manubrium
      {
        OFFSET -5.722621 16.35077 3.967754
        CHANNELS 3 Zrotation Xrotation Yrotation
        JOINT right_clavicle
        {
          OFFSET -13.16364 1.694482 -4.693211
          CHANNELS 3 Zrotation Xrotation Yrotation
          JOINT right_humerus
          {
            OFFSET -28.5034 -0.3100689 -2.792744
            CHANNELS 3 Zrotation Xrotation Yrotation
            JOINT right_radius
            {
              OFFSET -25.15693 0.02248979 -1.271978
              CHANNELS 3 Zrotation Xrotation Yrotation
              End Site
              {
                OFFSET -15 0 0
              }
            }
          }
        }
      }
      JOINT left_manubrium
      {
        OFFSET 5.722621 16.35077 3.967754
        CHANNELS 3 Zrotation Xrotation Yrotation
        JOINT left_clavicle
        {
          OFFSET 13.16364 1.694482 -4.693211
          CHANNELS 3 Zrotation Xrotation Yrotation
          JOINT left_humerus
          {
            OFFSET 29.39168 -1.063119 -2.237045
            CHANNELS 3 Zrotation Xrotation Yrotation
            JOINT left_radius
            {
              OFFSET 24.59957 -0.9528479 0.9047498
              CHANNELS 3 Zrotation Xrotation Yrotation
              End Site
              {
                OFFSET 15 -0 -0
              }
            }
          }
        }
      }
    }
  }
}
MOTION
Frames: 19
Frame Time: 0.0416666666667
0 103.5113 0 1.20789 -0.3847554 0.04407828 3.526272 -14.87846 10.60812 -0 39.04287 -0 -4.496002 -18.99928 -4.138202 -7.45693 10.36781 -23.88656 -0 5.61421 -0 10.98222 -15.24943 27.80064 -4.450103 -4.213171 4.512351 3.226305 9.288528 -7.969546 1.148305 22.18492 6.784395 2.315899 -24.99729 9.832981 6.696325 -20.03941 11.84725 85.20866 36.97879 -18.6773 -0 0 16.06457 -6.343467 9.006596 5.005558 4.633677 -18.15391 -1.195921 -94.01486 27.30509 22.83526 0 0 -15.5711 6.875618 16.33342 5.88697
0.3031696 103.574 1.465229 1.064624 -0.5015018 0.1249094 3.544378 -15.88559 10.0683 -0 39.23393 -0 -5.028045 -17.55461 -3.917062 -7.296272 10.64887 -23.51727 -0 5.496215 -0 10.32051 -15.74936 27.30938 -4.286251 -3.921949 4.366727 3.079465 9.358643 -7.948655 1.116253 22.19413 6.907533 2.586305 -24.88483 9.69624 6.618485 -19.8769 11.8004 85.43236 36.72527 -18.85689 -0 0 15.81834 -6.633534 8.651746 4.967253 4.845759 -18.57592 -1.423647 -93.80436 27.34582 22.43883 0 0 -15.74827 7.00918 16.28667 5.818814
0.6139638 103.5272 3.154018 0.5206005 0.0287072 0.2264251 4.28973 -19.53662 9.56588 -0 37.17872 -0 -5.569441 -15.12136 -3.451786 -6.952041 10.8293 -22.60671 -0 5.280635 -0 9.910784 -16.88762 26.67441 -3.853516 -3.296575 4.359083 3.03781 9.516943 -7.990553 1.230286 21.8025 7.057868 2.922439 -25.32523 9.783077 6.384233 -19.75075 11.77222 85.77558 36.29351 -19.15873 -0 0 15.55363 -6.838782 8.396672 4.810505 5.496794 -19.45084 -1.434637 -93.30221 26.44191 21.65439 0 0 -16.40328 8.617757 15.88623 4.369096
0.9311523 103.334 5.036626 0.02931668 0.8392224 0.329314 5.218114 -22.8515 9.513558 -0 33.97828 -0 -5.579053 -13.7681 -3.179955 -6.693081 10.94406 -21.97506 -0 5.219358 -0 9.586783 -18.04589 26.23362 -3.474286 -2.870972 4.500136 3.108238 9.529587 -8.069854 1.391223 21.33954 7.153053 3.100347 -25.90542 10.00313 6.186683 -19.71251 11.73948 86.01992 36.0591 -19.56843 -0 0 15.46352 -6.77732 8.512754 4.595407 6.08198 -20.08011 -1.225276 -93.1471 25.98158 21.34553 0 0 -17.4099 9.543297 15.6406 3.720224
1.245739 102.9781 7.180238 -0.4567739 1.701079 0.450305 6.174783 -26.28132 9.351319 -0 30.25718 -0 -5.582839 -12.23835 -2.873646 -6.424376 11.24515 -21.24913 -0 5.375437 -0 8.998982 -19.33095 25.58174 -3.081677 -2.449212 4.603854 3.170186 9.486399 -8.150766 1.540941 20.87655 7.275135 3.315761 -26.43805 10.20214 5.959423 -19.57104 11.66228 86.32692 35.81754 -20.09912 -0 0 15.21147 -6.79112 8.657787 4.366841 6.725903 -20.75974 -1.009984 -92.90098 25.57382 20.86625 0 0 -18.66221 10.33992 15.40648 3.150477
1.549908 102.4728 9.651695 -0.9239236 2.626818 0.6097239 7.134559 -29.61432 9.132316 -0 26.21505 -0 -5.562849 -10.58496 -2.547738 -6.157608 11.72792 -20.49632 -0 5.870858 -0 8.004577 -20.6979 24.6513 -2.67879 -2.067962 4.669244 3.217602 9.361643 -8.233394 1.664662 20.41399 7.442107 3.583215 -26.90027 10.37243 5.757518 -19.31288 11.53546 86.6508 35.66308 -20.76782 -0 0 14.8491 -6.83893 8.861405 4.100455 7.38992 -21.43307 -0.7800876 -92.67624 25.38411 20.38189 0 0 -20.10943 10.76701 15.23029 2.93243
1.835289 101.8499 12.54594 -1.369713 3.512347 0.8441557 7.98107 -32.64176 8.734299 -0 22.27128 -0 -5.64465 -8.654394 -2.182939 -5.876927 12.44258 -19.67692 -0 6.883048 -0 6.446752 -22.01925 23.28732 -2.248346 -1.720972 4.629932 3.219481 9.15273 -8.294035 1.748011 20.00641 7.665547 3.902447 -27.22608 10.50196 5.555896 -18.88276 11.33451 87.01669 35.54123 -21.53353 -0 0 14.2897 -6.996519 9.091563 3.827267 8.02362 -22.07553 -0.5820273 -92.40113 25.38962 19.80237 0 0 -21.62157 10.84332 15.10893 3.007513
2.097432 101.1704 15.96876 -1.798715 4.290691 1.196159 8.637535 -35.04278 8.152666 -0 18.85037 -0 -5.893255 -6.521341 -1.800616 -5.572095 13.34658 -18.80015 -0 8.625057 -0 4.276525 -23.05803 21.41163 -1.77563 -1.432262 4.448192 3.171535 8.85983 -8.32247 1.784187 19.68973 7.934496 4.228979 -27.39321 10.6023 5.353387 -18.27134 11.05264 87.41285 35.45823 -22.32113 -0 0 13.51612 -7.270864 9.383883 3.590458 8.531434 -22.59847 -0.4272278 -92.0726 25.5867 19.16158 0 0 -23.01813 10.55834 15.03348 3.379278
2.337971 100.5225 20.02322 -2.216955 4.868311 1.69874 9.051361 -36.41201 7.421463 -0 16.40252 -0 -6.378049 -4.403518 -1.447256 -5.22874 14.32312 -17.84887 -0 11.34108 -0 1.622779 -23.44235 19.04321 -1.246908 -1.233493 4.092887 3.087075 8.514795 -8.323468 1.765507 19.50436 8.20078 4.473149 -27.39157 10.67201 5.134217 -17.51023 10.70501 87.84112 35.39801 -23.01358 -0 0 12.51431 -7.659446 9.773291 3.480629 8.78099 -22.89367 -0.3315745 -91.65365 25.88304 18.46913 0 0 -24.07424 10.00419 14.94543 3.940901
2.566237 100.0196 24.77611 -2.627863 5.140404 2.345328 9.257659 -36.31338 6.675597 -0 15.28729 -0 -7.132708 -2.718706 -1.20744 -4.830365 15.13443 -16.78623 -0 15.28994 -0 -1.137726 -22.71187 16.38513 -0.6508331 -1.157774 3.572188 3.001433 8.197232 -8.327896 1.680851 19.47676 8.373551 4.515772 -27.22957 10.67383 4.887639 -16.7012 10.34909 88.30907 35.33718 -23.47633 -0 0 11.3253 -8.125982 10.27048 3.618644 8.62585 -22.8578 -0.3145242 -91.12267 26.12422 17.76982 0 0 -24.55419 9.337054 14.73856 4.536802
2.796025 99.79268 30.20741 -3.024557 4.979438 3.046526 9.388257 -34.43106 6.118053 -0 15.61365 -0 -8.128609 -2.008036 -1.193704 -4.356023 15.41195 -15.56141 -0 20.75099 -0 -3.452167 -20.4677 13.83078 0.02547572 -1.204305 2.966899 2.952592 8.042786 -8.381465 1.518492 19.61358 8.342062 4.267484 -26.91224 10.51696 4.619047 -16.01397 10.09264 88.82925 35.2265 -23.60693 -0 0 10.07738 -8.625298 10.81669 4.097621 7.971553 -22.46391 -0.4184528 -90.5167 26.13566 17.16437 0 0 -24.2736 8.730986 14.29824 5.021797
3.03728 99.97271 36.15995 -3.371769 4.249942 3.598772 9.57103 -30.80861 5.869627 -0 17.04201 -0 -9.245265 -2.655214 -1.469679 -3.789808 14.67543 -14.16454 -0 28.01722 -0 -4.930886 -16.66119 11.81463 0.78504 -1.278641 2.471731 2.931542 8.20654 -8.489958 1.281727 19.89634 8.057033 3.795426 -26.39817 10.08138 4.392739 -15.62272 10.06869 89.36542 35.02942 -23.39384 -0 0 9.025254 -9.160686 11.27762 4.857735 6.894598 -21.85109 -0.7243189 -90.00954 25.83317 16.85158 0 0 -23.17308 8.268338 13.60764 5.379393
3.290091 100.653 42.34173 -3.550737 2.880135 3.733739 9.700971 -25.94824 5.735285 -0 18.67934 -0 -10.26175 -4.464269 -1.895201 -3.183161 12.42365 -12.70195 -0 37.20223 -0 -5.734176 -11.9251 10.58114 1.536444 -1.172161 2.387526 2.830139 8.745399 -8.525266 1.014242 20.30259 7.626146 3.409765 -25.57534 9.315674 4.34837 -15.56813 10.34388 89.74368 34.80291 -22.90595 -0 0 8.488312 -9.844325 11.51042 5.607693 5.728596 -21.32819 -1.314614 -89.88104 25.31478 17.05428 0 0 -21.3937 7.880924 12.85746 5.730959
3.551844 101.8196 48.43022 -3.303846 1.017471 3.318622 9.32415 -20.43322 5.226998 -0 19.31349 -0 -10.87893 -6.632746 -2.088065 -2.752666 8.314639 -11.39876 -0 47.5762 -0 -6.366227 -7.607481 10.10937 1.948426 -0.7123525 2.981944 2.494516 9.471779 -8.217307 0.8062393 20.84694 7.261427 3.449194 -24.38449 8.364784 4.577163 -15.69159 10.8028 89.65536 34.72217 -22.14103 -0 0 8.615554 -10.8169 11.49201 6.034515 4.916166 -21.13717 -2.100219 -90.25628 24.79485 17.78234 0 0 -19.32943 7.471596 12.36199 6.115992
3.823401 103.287 54.22463 -2.37721 -0.9125163 2.564836 8.023186 -14.41952 4.079053 -0 18.12669 -0 -10.88464 -8.475391 -1.760696 -2.763245 2.451358 -10.43194 -0 56.86589 -0 -6.888113 -5.061019 10.23882 1.562055 -0.007717065 4.227311 1.917033 10.00857 -7.396019 0.7378269 21.56409 7.038605 3.830513 -23.01985 7.535365 4.921532 -15.83164 11.1851 88.88634 34.92631 -20.89566 -0 0 9.192736 -12.03964 11.36597 6.230444 4.636467 -21.15304 -2.698429 -90.85298 24.40306 18.69167 0 0 -17.52762 7.100548 12.23575 6.316158
4.096996 104.7282 59.69656 -0.8955745 -2.484708 1.881001 6.079058 -7.964315 2.667488 -0 15.37156 -0 -10.40415 -9.96793 -1.088105 -3.102504 -4.416175 -9.701727 -0 62.03377 -0 -6.84435 -4.591775 10.89877 0.3389573 0.6371315 5.682265 1.298097 10.13596 -6.25715 0.7937407 22.396 6.828155 4.105172 -21.80715 7.018405 5.072058 -16.05234 11.33814 87.52318 35.33728 -18.9433 -0 0 9.893258 -13.33814 11.28053 6.657391 4.698554 -21.03616 -2.769761 -91.2363 24.08628 19.36237 0 0 -16.28771 6.911717 12.25968 6.104505
4.361739 105.7984 64.90738 0.5675393 -3.572944 1.490116 4.342289 -1.639314 1.549861 -0 12.09757 -0 -9.799034 -11.3843 -0.4772375 -3.175896 -11.22691 -8.837278 -0 61.27176 -0 -6.118459 -5.385201 12.17435 -1.122132 1.099255 6.782708 0.8204824 9.96698 -5.194711 0.8642005 23.15626 6.544557 4.055333 -20.86727 6.716947 4.891752 -16.53314 11.3445 85.80452 35.70263 -16.30527 -0 0 10.71979 -14.68397 11.20708 7.588044 4.872568 -20.66383 -2.420532 -91.33093 23.70526 19.72209 0 0 -15.3597 6.883021 12.15104 5.581584
4.628128 106.245 69.93423 1.42872 -4.235202 1.336556 3.446781 3.808649 0.8426153 -0 9.243245 -0 -9.312225 -12.92794 -0.1059383 -2.407926 -17.19464 -7.512585 -0 54.70726 -0 -5.195285 -6.410466 13.9883 -2.113179 1.471655 7.240475 0.5031145 9.69013 -4.447478 0.8317124 23.66005 6.27771 3.831169 -20.13671 6.441334 4.449221 -17.35079 11.34114 83.90297 35.77024 -13.22968 -0 0 11.95871 -16.16797 10.97717 8.910207 5.104654 -20.14719 -1.993154 -91.42146 23.21814 20.0655 0 0 -14.25207 6.808271 11.80603 5.11486
4.925184 105.957 74.87975 1.467428 -4.499007 1.244974 3.445297 8.061579 0.3138921 -0 7.201037 -0 -8.955335 -14.71617 0.1390388 -0.7261372 -21.91167 -5.763644 -0 43.84496 -0 -4.632851 -7.066023 15.95524 -2.321074 1.797984 7.115547 0.2874385 9.347782 -4.023431 0.6582436 23.84428 6.158761 3.630076 -19.58132 6.140986 3.84402 -18.41505 11.34115 81.95093 35.41982 -10.05037 -0 0 13.75869 -17.78147 10.45785 10.36893 5.412794 -19.58737 -1.678575 -91.75145 22.73752 20.68068 0 0 -12.70621 6.513715 11.30352 5.019387
